# xmcd
#
# Track frame offsets: 
#        150
#        12145
#        24725
#        33925
#        46095
#        55492
#        68217
#        77875
#        90212
#        101310
#        113300
#        128945
#        138682
#        148762
#        157370
#
# Disc length: 2283 seconds
#
# Revision: 6
# Processed by: cddbd v1.5.2PL0 Copyright (c) Steve Scherf et al.
# Submitted via: ExactAudioCopy v0.99pb5
#
DISCID=c408e90f
DTITLE=Various Artist - Classic Country - TL 626-12 - '60s Legends - CD 1
DYEAR=2000
DGENRE=Country
TTITLE0=Jim Reeves - Welcome to my world
TTITLE1=Johnny Cash and June Carter Cash - Jackson
TTITLE2=Marty Robbins - Ruby Ann
TTITLE3=Eddy Arnold - I want to go with you
TTITLE4=Burl Ives - A little bitty tear
TTITLE5=Tammy Wynette - Take me to your world
TTITLE6=George Jones - The race is on
TTITLE7=Bobby Bare - 500 miles away from home
TTITLE8=Buck Owens - My heart skips a beat
TTITLE9=Sonny James - A world of our own
TTITLE10=Bill Anderson - Mama sang a song
TTITLE11=Loretta Lynn - Don't come home a' drinkin' (with lovin' on yo
TTITLE11=ur mind)
TTITLE12=Merle Haggard And The Strangers - Mama tried
TTITLE13=Roger Miller - England swings
TTITLE14=Glen Campbell - Wichita lineman
EXTD=
EXTT0=
EXTT1=
EXTT2=
EXTT3=
EXTT4=
EXTT5=
EXTT6=
EXTT7=
EXTT8=
EXTT9=
EXTT10=
EXTT11=
EXTT12=
EXTT13=
EXTT14=
PLAYORDER=
